<svg width="33" height="33" viewBox="0 0 33 33" fill="none" xmlns="http://www.w3.org/2000/svg">
<path opacity="0.4" d="M11.3893 4.125H22.987C27.0406 4.125 29.5625 6.98664 29.5625 11.0363V21.9637C29.5625 26.0134 27.0406 28.875 22.9857 28.875H11.3893C7.33567 28.875 4.8125 26.0134 4.8125 21.9637V11.0363C4.8125 6.98664 7.3477 4.125 11.3893 4.125Z" stroke="white" stroke-width="2.0625" stroke-linecap="round" stroke-linejoin="round"/>
<path fill-rule="evenodd" clip-rule="evenodd" d="M12.185 13.4989C11.0799 13.4989 10.1836 12.6025 10.1836 11.4975C10.1836 10.3924 11.0799 9.49609 12.185 9.49609C13.29 9.49609 14.1864 10.3924 14.1864 11.4975V21.5046C14.1864 22.6095 13.29 23.5045 12.185 23.5045C11.0799 23.5045 10.1836 22.6095 10.1836 21.5046C10.1836 20.3981 11.0799 19.5031 12.185 19.5031H22.1907C23.297 19.5031 24.1922 20.3981 24.1922 21.5046C24.1922 22.6095 23.297 23.5045 22.1907 23.5045C21.0856 23.5045 20.1906 22.6095 20.1906 21.5046V11.4975C20.1906 10.3924 21.0856 9.49609 22.1907 9.49609C23.297 9.49609 24.1922 10.3924 24.1922 11.4975C24.1922 12.6025 23.297 13.4989 22.1907 13.4989H12.185Z" stroke="white" stroke-width="2.0625" stroke-linecap="round" stroke-linejoin="round"/>
</svg>
