<?xml version="1.0" encoding="UTF-8"?>
<svg width="343" height="80" viewBox="0 0 343 80" fill="none" xmlns="http://www.w3.org/2000/svg">
    <path fill-rule="evenodd" clip-rule="evenodd"
        d="M0 0V59.661H12.2034V43.3898H23.0508C28.8047 43.3898 34.3229 41.1041 38.3915 37.0355C42.46 32.967 44.7458 27.4488 44.7458 21.6949C44.7458 15.9411 42.4601 10.4229 38.3915 6.3543C34.3229 2.28571 28.8047 0 23.0508 0H0ZM21.6972 32.5424H12.2034V10.8475H21.6949C24.5718 10.8475 27.3309 11.9903 29.3652 14.0246C31.3995 16.0589 32.5424 18.818 32.5424 21.6949C32.5424 24.5718 31.3995 27.3309 29.3652 29.3652C27.3315 31.399 24.5733 32.5418 21.6972 32.5424Z"
        fill="white" />
    <path fill-rule="evenodd" clip-rule="evenodd"
        d="M66.4407 61.017C54.9153 61.017 44.7458 50.8476 44.7458 37.9662C44.7458 25.0848 54.9153 14.9153 66.4407 14.9153C74.5763 14.9153 77.2881 17.6271 79.322 19.661L80.678 16.2713H90.8475V59.6611H80.678L79.322 56.2712C77.2881 58.3051 74.5762 61.017 66.4407 61.017ZM56.2712 37.9662C56.2712 31.1865 61.9686 25.7628 68.7482 25.7628C75.5279 25.7628 80.678 31.1865 80.678 37.9662C80.678 44.7459 75.2542 50.1696 68.4746 50.1696C61.6949 50.1696 56.2712 44.7459 56.2712 37.9662Z"
        fill="white" />
    <path
        d="M105.514 39.845L105.495 39.8377L105.476 39.8315C99.8155 38.0232 95.3878 34.4283 95.3878 28.8773C95.3878 20.5763 102.946 14.9153 111.91 14.9153C114.758 14.9153 118.603 15.4838 121.85 17.4382C124.919 19.2849 127.495 22.3895 128.19 27.5593H116.518C116.437 27.0421 116.257 26.3709 115.792 25.7638C115.083 24.8383 113.834 24.1993 111.75 24.1993C110.2 24.1993 109.077 24.6909 108.34 25.4279C107.615 26.1529 107.312 27.0689 107.312 27.8373C107.312 29.3957 108.388 30.5138 109.716 31.3258C111.057 32.1452 112.831 32.7654 114.598 33.2876L114.609 33.2907C118.397 34.3383 122.157 35.3927 124.986 37.3361C127.754 39.238 129.632 41.9951 129.632 46.5573C129.632 55.4049 121.85 60.9993 112.23 60.9993C108.956 60.9993 104.872 60.2562 101.481 58.1234C98.2696 56.1039 95.648 52.8225 94.9152 47.6353H106.784C107.223 49.5582 108.402 50.6039 109.589 51.1443C110.843 51.7153 112.082 51.7153 112.385 51.7153H112.39C113.627 51.7153 114.922 51.3644 115.927 50.6904C116.941 50.0108 117.708 48.9615 117.708 47.5973C117.708 46.8078 117.554 46.1121 117.196 45.4906C116.841 44.8736 116.314 44.3808 115.651 43.9474C114.376 43.114 112.438 42.4067 109.848 41.4614L109.749 41.4254C108.509 40.9726 107.103 40.4595 105.514 39.845Z"
        fill="white" />
    <path
        d="M142.125 39.845L142.106 39.8377L142.086 39.8315C136.426 38.0232 131.998 34.4283 131.998 28.8773C131.998 20.5763 139.556 14.9153 148.52 14.9153C151.368 14.9153 155.213 15.4838 158.46 17.4382C161.529 19.2849 164.105 22.3895 164.8 27.5593H153.128C153.048 27.0421 152.867 26.3709 152.402 25.7638C151.693 24.8383 150.444 24.1993 148.36 24.1993C146.81 24.1993 145.688 24.6909 144.951 25.4279C144.226 26.1529 143.922 27.0689 143.922 27.8373C143.922 29.3957 144.998 30.5138 146.326 31.3258C147.667 32.1452 149.441 32.7654 151.208 33.2876L151.219 33.2907C155.007 34.3383 158.768 35.3927 161.596 37.3361C164.364 39.238 166.242 41.9951 166.242 46.5573C166.242 55.4049 158.46 60.9993 148.84 60.9993C145.566 60.9993 141.482 60.2562 138.091 58.1234C134.88 56.1039 132.258 52.8225 131.525 47.6353H143.395C143.833 49.5582 145.012 50.6039 146.199 51.1443C147.453 51.7153 148.692 51.7153 148.996 51.7153H149C150.237 51.7153 151.532 51.3644 152.538 50.6904C153.551 50.0108 154.318 48.9615 154.318 47.5973C154.318 46.8078 154.164 46.1121 153.806 45.4906C153.451 44.8736 152.924 44.3808 152.261 43.9474C150.986 43.114 149.048 42.4067 146.458 41.4614L146.359 41.4254C145.119 40.9726 143.713 40.4595 142.125 39.845Z"
        fill="white" />
    <path fill-rule="evenodd" clip-rule="evenodd"
        d="M168.136 37.9662C168.136 50.8476 178.305 61.017 189.83 61.017C197.966 61.017 200.678 58.3051 202.712 56.2712L204.068 59.6611H214.237V16.2713H204.068L202.712 19.661C200.678 17.6271 197.966 14.9153 189.83 14.9153C178.305 14.9153 168.136 25.0848 168.136 37.9662ZM192.138 25.7628C185.358 25.7628 179.661 31.1865 179.661 37.9662C179.661 44.7459 185.085 50.1696 191.864 50.1696C198.644 50.1696 204.068 44.7459 204.068 37.9662C204.068 31.1865 198.918 25.7628 192.138 25.7628Z"
        fill="white" />
    <path fill-rule="evenodd" clip-rule="evenodd"
        d="M240 61.017C228.475 61.017 218.305 50.8476 218.305 37.9662C218.305 25.0848 228.475 14.9153 240 14.9153C248.136 14.9153 250.847 17.6271 252.881 19.661L254.237 16.2713H264.407V58.3051C264.342 60.9406 264.023 64.1081 262.808 67.2042C261.295 71.0625 258.487 74.5231 253.809 76.9061C246.338 80.7113 232.813 82.095 221.518 74.186L227.74 65.3005C235.216 70.5355 244.368 69.5411 248.886 67.2402C251.124 66.0999 252.135 64.7104 252.71 63.2435C253.368 61.5664 253.559 59.5136 253.559 56.9492V56.2712C251.525 58.3051 248.136 61.017 240 61.017ZM229.83 37.9662C229.83 31.1865 235.528 25.7628 242.308 25.7628C249.087 25.7628 254.237 31.1865 254.237 37.9662C254.237 44.7459 248.814 50.1696 242.034 50.1696C235.254 50.1696 229.83 44.7459 229.83 37.9662Z"
        fill="white" />
    <path fill-rule="evenodd" clip-rule="evenodd"
        d="M268.475 37.9661C268.475 50.6967 278.795 61.017 291.525 61.017C293.176 61.0173 302.398 61.0191 310.044 54.2231L302.837 46.1156C298.333 50.1198 292.681 50.1695 291.525 50.1695C286.507 50.1695 282.238 46.7736 280.656 42.0339H314.218C314.454 40.7135 314.576 39.3541 314.576 37.9661C314.576 25.2355 304.256 14.9153 291.525 14.9153C278.795 14.9153 268.475 25.2355 268.475 37.9661ZM302.395 33.8983C300.813 29.1585 296.544 25.7627 291.525 25.7627C286.507 25.7627 282.238 29.1585 280.656 33.8983H302.395Z"
        fill="white" />
    <circle cx="332.76" cy="51" r="10" fill="#FF6F00" />
</svg>