<svg xmlns="http://www.w3.org/2000/svg" xmlns:xlink="http://www.w3.org/1999/xlink" id="Layer_1" x="0px" y="0px" viewBox="0 0 178 71" style="enable-background:new 0 0 178 71;" xml:space="preserve"><style type="text/css">	.st0{fill:#101010;}	.st1{enable-background:new    ;}	.st2{fill:#F14B19;}</style><g transform="translate(-247 -6)">	<path class="st0" d="M407,59V49h-10v-8h10V31h8v10h10v8h-10v10H407z"></path>	<g class="st1">		<path class="st2" d="M275.4,23.7v6.8h-9.6V59h-8.6V30.5h-9.5v-6.8H275.4z"></path>		<path class="st2" d="M304.3,34c1.9,2.1,2.8,5.1,2.8,8.8V59h-8.6V43.8c0-1.9-0.5-3.3-1.5-4.4c-1-1-2.3-1.6-3.9-1.6   c-1.7,0-3.1,0.6-4.1,1.7c-1,1.1-1.5,2.7-1.5,4.7V59h-8.5V22h8.5v14.2c0.8-1.7,2-3,3.6-4c1.6-1,3.4-1.5,5.6-1.5   C299.8,30.8,302.4,31.9,304.3,34z"></path>		<path class="st2" d="M313.3,20c0.9-0.9,2.2-1.3,3.7-1.3c1.5,0,2.8,0.4,3.7,1.3c0.9,0.8,1.4,1.9,1.4,3.2c0,1.3-0.5,2.3-1.4,3.2   c-0.9,0.9-2.2,1.3-3.7,1.3c-1.5,0-2.8-0.4-3.7-1.3c-0.9-0.8-1.4-1.9-1.4-3.2C311.9,22,312.4,20.9,313.3,20z M321.3,31.1V59h-8.5   V31.1H321.3z"></path>		<path class="st2" d="M352.5,34c1.9,2.1,2.8,5.1,2.8,8.8V59h-8.5V43.8c0-1.9-0.5-3.3-1.5-4.4c-1-1-2.3-1.6-3.9-1.6   c-1.7,0-3.1,0.6-4.1,1.7c-1,1.1-1.5,2.7-1.5,4.7V59h-8.5V31.1h8.5v5.1c0.8-1.7,2-3,3.6-4c1.6-1,3.4-1.5,5.6-1.5   C348.1,30.8,350.6,31.9,352.5,34z"></path>		<path class="st2" d="M377.9,59l-8.3-11.8V59H361V22h8.6v20.3l8.3-11.2h10l-11.2,14l11.5,14H377.9z"></path>	</g></g></svg>